<mxfile host="app.diagrams.net" modified="2024-01-15T02:23:19.351Z" agent="Mozilla/5.0 (Macintosh; Intel Mac OS X 10_15_7) AppleWebKit/537.36 (KHTML, like Gecko) Chrome/120.0.0.0 Safari/537.36" etag="lzTpe2FSWY8oekqZGeL-" version="22.1.18" type="github">
  <diagram id="prtHgNgQTEPvFCAcTncT" name="Page-1">
    <mxGraphModel dx="1590" dy="947" grid="1" gridSize="10" guides="1" tooltips="1" connect="1" arrows="1" fold="1" page="1" pageScale="1" pageWidth="827" pageHeight="1169" math="0" shadow="0">
      <root>
        <mxCell id="0" />
        <mxCell id="1" parent="0" />
        <mxCell id="dNxyNK7c78bLwvsdeMH5-19" value="提币流程图" style="swimlane;html=1;childLayout=stackLayout;resizeParent=1;resizeParentMax=0;horizontal=0;startSize=20;horizontalStack=0;" parent="1" vertex="1">
          <mxGeometry x="40" y="54" width="720" height="530" as="geometry" />
        </mxCell>
        <mxCell id="dNxyNK7c78bLwvsdeMH5-20" value="用户" style="swimlane;html=1;startSize=20;horizontal=0;" parent="dNxyNK7c78bLwvsdeMH5-19" vertex="1">
          <mxGeometry x="20" width="700" height="180" as="geometry" />
        </mxCell>
        <mxCell id="dNxyNK7c78bLwvsdeMH5-23" value="发起&lt;br&gt;提币" style="ellipse;whiteSpace=wrap;html=1;" parent="dNxyNK7c78bLwvsdeMH5-20" vertex="1">
          <mxGeometry x="55" y="63.5" width="50" height="47" as="geometry" />
        </mxCell>
        <mxCell id="gYcP82nbXFkaeSfVEiDT-9" value="提币订单&lt;br&gt;（已拒绝：归还提币和手续费数量）" style="rounded=0;whiteSpace=wrap;html=1;fontFamily=Helvetica;fontSize=12;align=center;fillColor=#fff2cc;strokeColor=#d6b656;" vertex="1" parent="dNxyNK7c78bLwvsdeMH5-20">
          <mxGeometry x="550" y="10" width="110" height="40" as="geometry" />
        </mxCell>
        <mxCell id="gYcP82nbXFkaeSfVEiDT-5" value="提币订单&lt;br&gt;（已取消：归还提币和手续费数量）" style="rounded=0;whiteSpace=wrap;html=1;fontFamily=Helvetica;fontSize=12;align=center;fillColor=#fff2cc;strokeColor=#d6b656;" vertex="1" parent="dNxyNK7c78bLwvsdeMH5-20">
          <mxGeometry x="550" y="62" width="110" height="47" as="geometry" />
        </mxCell>
        <mxCell id="gYcP82nbXFkaeSfVEiDT-6" value="提币订单&lt;br&gt;（已提币）&lt;br&gt;链上Hash" style="rounded=0;whiteSpace=wrap;html=1;fontFamily=Helvetica;fontSize=12;align=center;fillColor=#fff2cc;strokeColor=#d6b656;" vertex="1" parent="dNxyNK7c78bLwvsdeMH5-20">
          <mxGeometry x="550" y="120" width="100" height="50" as="geometry" />
        </mxCell>
        <mxCell id="gYcP82nbXFkaeSfVEiDT-42" style="edgeStyle=orthogonalEdgeStyle;rounded=0;orthogonalLoop=1;jettySize=auto;html=1;entryX=0;entryY=0.5;entryDx=0;entryDy=0;" edge="1" parent="dNxyNK7c78bLwvsdeMH5-20" source="gYcP82nbXFkaeSfVEiDT-4" target="gYcP82nbXFkaeSfVEiDT-38">
          <mxGeometry relative="1" as="geometry" />
        </mxCell>
        <mxCell id="gYcP82nbXFkaeSfVEiDT-4" value="提币订单&lt;br&gt;（处理中）" style="rounded=0;whiteSpace=wrap;html=1;fontFamily=Helvetica;fontSize=12;align=center;fillColor=#dae8fc;strokeColor=#6c8ebf;" vertex="1" parent="dNxyNK7c78bLwvsdeMH5-20">
          <mxGeometry x="308" y="70.5" width="84" height="40" as="geometry" />
        </mxCell>
        <mxCell id="gYcP82nbXFkaeSfVEiDT-12" value="创建提币申请订单&lt;br&gt;（待审核）&lt;br&gt;可用余额减提币和手续费数量" style="rounded=0;whiteSpace=wrap;html=1;fontFamily=Helvetica;fontSize=12;align=center;fillColor=#dae8fc;strokeColor=#6c8ebf;" vertex="1" parent="dNxyNK7c78bLwvsdeMH5-20">
          <mxGeometry x="159" y="60" width="100" height="53.5" as="geometry" />
        </mxCell>
        <mxCell id="gYcP82nbXFkaeSfVEiDT-38" value="取消提币" style="rhombus;whiteSpace=wrap;html=1;" vertex="1" parent="dNxyNK7c78bLwvsdeMH5-20">
          <mxGeometry x="410" y="55" width="70" height="70" as="geometry" />
        </mxCell>
        <mxCell id="gYcP82nbXFkaeSfVEiDT-43" style="edgeStyle=orthogonalEdgeStyle;rounded=0;orthogonalLoop=1;jettySize=auto;html=1;entryX=-0.029;entryY=0.609;entryDx=0;entryDy=0;entryPerimeter=0;" edge="1" parent="dNxyNK7c78bLwvsdeMH5-20" source="gYcP82nbXFkaeSfVEiDT-38" target="gYcP82nbXFkaeSfVEiDT-5">
          <mxGeometry relative="1" as="geometry" />
        </mxCell>
        <mxCell id="gYcP82nbXFkaeSfVEiDT-45" value="取消" style="edgeLabel;html=1;align=center;verticalAlign=middle;resizable=0;points=[];" vertex="1" connectable="0" parent="gYcP82nbXFkaeSfVEiDT-43">
          <mxGeometry x="-0.5254" y="1" relative="1" as="geometry">
            <mxPoint as="offset" />
          </mxGeometry>
        </mxCell>
        <mxCell id="dNxyNK7c78bLwvsdeMH5-21" value="后台&lt;br&gt;" style="swimlane;html=1;startSize=20;horizontal=0;" parent="dNxyNK7c78bLwvsdeMH5-19" vertex="1">
          <mxGeometry x="20" y="180" width="700" height="170" as="geometry" />
        </mxCell>
        <mxCell id="gYcP82nbXFkaeSfVEiDT-1" value="创建提币&lt;br&gt;申请订单&lt;br&gt;" style="rounded=0;whiteSpace=wrap;html=1;fontFamily=Helvetica;fontSize=12;align=center;fillColor=#dae8fc;strokeColor=#6c8ebf;" vertex="1" parent="dNxyNK7c78bLwvsdeMH5-21">
          <mxGeometry x="30" y="50" width="100" height="50" as="geometry" />
        </mxCell>
        <mxCell id="gYcP82nbXFkaeSfVEiDT-7" value="提币审核" style="rhombus;whiteSpace=wrap;html=1;fontFamily=Helvetica;fontSize=12;fontColor=#000000;align=center;" vertex="1" parent="dNxyNK7c78bLwvsdeMH5-21">
          <mxGeometry x="169" y="40" width="80" height="70" as="geometry" />
        </mxCell>
        <mxCell id="dNxyNK7c78bLwvsdeMH5-22" value="钱包系统" style="swimlane;html=1;startSize=20;horizontal=0;" parent="dNxyNK7c78bLwvsdeMH5-19" vertex="1">
          <mxGeometry x="20" y="350" width="700" height="180" as="geometry" />
        </mxCell>
        <mxCell id="gYcP82nbXFkaeSfVEiDT-31" style="edgeStyle=orthogonalEdgeStyle;rounded=0;orthogonalLoop=1;jettySize=auto;html=1;entryX=0;entryY=0.5;entryDx=0;entryDy=0;" edge="1" parent="dNxyNK7c78bLwvsdeMH5-22" source="gYcP82nbXFkaeSfVEiDT-21" target="gYcP82nbXFkaeSfVEiDT-29">
          <mxGeometry relative="1" as="geometry" />
        </mxCell>
        <mxCell id="gYcP82nbXFkaeSfVEiDT-21" value="发起上链&lt;br&gt;提币转账" style="rounded=0;whiteSpace=wrap;html=1;fontFamily=Helvetica;fontSize=12;align=center;fillColor=#dae8fc;strokeColor=#6c8ebf;" vertex="1" parent="dNxyNK7c78bLwvsdeMH5-22">
          <mxGeometry x="159" y="50" width="100" height="50" as="geometry" />
        </mxCell>
        <mxCell id="gYcP82nbXFkaeSfVEiDT-33" style="edgeStyle=orthogonalEdgeStyle;rounded=0;orthogonalLoop=1;jettySize=auto;html=1;entryX=0;entryY=0.5;entryDx=0;entryDy=0;exitX=0.5;exitY=1;exitDx=0;exitDy=0;" edge="1" parent="dNxyNK7c78bLwvsdeMH5-22" source="gYcP82nbXFkaeSfVEiDT-29" target="gYcP82nbXFkaeSfVEiDT-21">
          <mxGeometry relative="1" as="geometry">
            <mxPoint x="400" y="145" as="sourcePoint" />
            <mxPoint x="167" y="145" as="targetPoint" />
            <Array as="points">
              <mxPoint x="390" y="130" />
              <mxPoint x="139" y="130" />
              <mxPoint x="139" y="75" />
            </Array>
          </mxGeometry>
        </mxCell>
        <mxCell id="gYcP82nbXFkaeSfVEiDT-34" value="链上转账失败，重新发起交易，不再扣用户手续费" style="edgeLabel;html=1;align=center;verticalAlign=middle;resizable=0;points=[];" vertex="1" connectable="0" parent="gYcP82nbXFkaeSfVEiDT-33">
          <mxGeometry x="-0.6011" y="-1" relative="1" as="geometry">
            <mxPoint as="offset" />
          </mxGeometry>
        </mxCell>
        <mxCell id="gYcP82nbXFkaeSfVEiDT-29" value="链上到账" style="rhombus;whiteSpace=wrap;html=1;" vertex="1" parent="dNxyNK7c78bLwvsdeMH5-22">
          <mxGeometry x="355" y="40" width="70" height="70" as="geometry" />
        </mxCell>
        <mxCell id="dNxyNK7c78bLwvsdeMH5-25" value="" style="edgeStyle=orthogonalEdgeStyle;rounded=0;orthogonalLoop=1;jettySize=auto;html=1;entryX=0.5;entryY=0;entryDx=0;entryDy=0;" parent="dNxyNK7c78bLwvsdeMH5-19" source="dNxyNK7c78bLwvsdeMH5-23" target="gYcP82nbXFkaeSfVEiDT-1" edge="1">
          <mxGeometry relative="1" as="geometry">
            <mxPoint x="140" y="60" as="targetPoint" />
          </mxGeometry>
        </mxCell>
        <mxCell id="gYcP82nbXFkaeSfVEiDT-13" style="edgeStyle=orthogonalEdgeStyle;rounded=0;orthogonalLoop=1;jettySize=auto;html=1;entryX=0;entryY=0.5;entryDx=0;entryDy=0;" edge="1" parent="dNxyNK7c78bLwvsdeMH5-19" source="gYcP82nbXFkaeSfVEiDT-1" target="gYcP82nbXFkaeSfVEiDT-12">
          <mxGeometry relative="1" as="geometry">
            <Array as="points">
              <mxPoint x="160" y="255" />
              <mxPoint x="160" y="87" />
            </Array>
          </mxGeometry>
        </mxCell>
        <mxCell id="gYcP82nbXFkaeSfVEiDT-14" value="" style="edgeStyle=orthogonalEdgeStyle;rounded=0;orthogonalLoop=1;jettySize=auto;html=1;entryX=0.5;entryY=0;entryDx=0;entryDy=0;" edge="1" parent="dNxyNK7c78bLwvsdeMH5-19" source="gYcP82nbXFkaeSfVEiDT-12" target="gYcP82nbXFkaeSfVEiDT-7">
          <mxGeometry relative="1" as="geometry" />
        </mxCell>
        <mxCell id="gYcP82nbXFkaeSfVEiDT-15" style="edgeStyle=orthogonalEdgeStyle;rounded=0;orthogonalLoop=1;jettySize=auto;html=1;entryX=0;entryY=0.5;entryDx=0;entryDy=0;exitX=0.5;exitY=1;exitDx=0;exitDy=0;" edge="1" parent="dNxyNK7c78bLwvsdeMH5-19" source="gYcP82nbXFkaeSfVEiDT-7" target="gYcP82nbXFkaeSfVEiDT-9">
          <mxGeometry relative="1" as="geometry">
            <Array as="points">
              <mxPoint x="229" y="310" />
              <mxPoint x="530" y="310" />
              <mxPoint x="530" y="30" />
            </Array>
          </mxGeometry>
        </mxCell>
        <mxCell id="gYcP82nbXFkaeSfVEiDT-40" value="拒绝" style="edgeLabel;html=1;align=center;verticalAlign=middle;resizable=0;points=[];" vertex="1" connectable="0" parent="gYcP82nbXFkaeSfVEiDT-15">
          <mxGeometry x="-0.6925" y="3" relative="1" as="geometry">
            <mxPoint as="offset" />
          </mxGeometry>
        </mxCell>
        <mxCell id="gYcP82nbXFkaeSfVEiDT-25" style="edgeStyle=orthogonalEdgeStyle;rounded=0;orthogonalLoop=1;jettySize=auto;html=1;entryX=0;entryY=0.5;entryDx=0;entryDy=0;" edge="1" parent="dNxyNK7c78bLwvsdeMH5-19" source="gYcP82nbXFkaeSfVEiDT-7" target="gYcP82nbXFkaeSfVEiDT-4">
          <mxGeometry relative="1" as="geometry">
            <Array as="points">
              <mxPoint x="310" y="255" />
              <mxPoint x="310" y="90" />
            </Array>
          </mxGeometry>
        </mxCell>
        <mxCell id="gYcP82nbXFkaeSfVEiDT-27" value="通过" style="edgeLabel;html=1;align=center;verticalAlign=middle;resizable=0;points=[];" vertex="1" connectable="0" parent="gYcP82nbXFkaeSfVEiDT-25">
          <mxGeometry x="-0.6582" y="-1" relative="1" as="geometry">
            <mxPoint as="offset" />
          </mxGeometry>
        </mxCell>
        <mxCell id="gYcP82nbXFkaeSfVEiDT-26" style="edgeStyle=orthogonalEdgeStyle;rounded=0;orthogonalLoop=1;jettySize=auto;html=1;exitX=0.5;exitY=1;exitDx=0;exitDy=0;" edge="1" parent="dNxyNK7c78bLwvsdeMH5-19" source="gYcP82nbXFkaeSfVEiDT-38" target="gYcP82nbXFkaeSfVEiDT-21">
          <mxGeometry relative="1" as="geometry">
            <mxPoint x="460" y="130" as="sourcePoint" />
            <Array as="points">
              <mxPoint x="465" y="380" />
              <mxPoint x="229" y="380" />
            </Array>
          </mxGeometry>
        </mxCell>
        <mxCell id="gYcP82nbXFkaeSfVEiDT-44" value="不取消" style="edgeLabel;html=1;align=center;verticalAlign=middle;resizable=0;points=[];" vertex="1" connectable="0" parent="gYcP82nbXFkaeSfVEiDT-26">
          <mxGeometry x="-0.8805" y="2" relative="1" as="geometry">
            <mxPoint as="offset" />
          </mxGeometry>
        </mxCell>
        <mxCell id="gYcP82nbXFkaeSfVEiDT-32" style="edgeStyle=orthogonalEdgeStyle;rounded=0;orthogonalLoop=1;jettySize=auto;html=1;entryX=0;entryY=0.5;entryDx=0;entryDy=0;" edge="1" parent="dNxyNK7c78bLwvsdeMH5-19" source="gYcP82nbXFkaeSfVEiDT-29" target="gYcP82nbXFkaeSfVEiDT-6">
          <mxGeometry relative="1" as="geometry">
            <Array as="points">
              <mxPoint x="550" y="425" />
              <mxPoint x="550" y="145" />
            </Array>
          </mxGeometry>
        </mxCell>
        <mxCell id="gYcP82nbXFkaeSfVEiDT-36" value="&amp;nbsp;链上到账成功" style="edgeLabel;html=1;align=center;verticalAlign=middle;resizable=0;points=[];" vertex="1" connectable="0" parent="gYcP82nbXFkaeSfVEiDT-32">
          <mxGeometry x="-0.857" y="-1" relative="1" as="geometry">
            <mxPoint as="offset" />
          </mxGeometry>
        </mxCell>
      </root>
    </mxGraphModel>
  </diagram>
</mxfile>
